<?xml version="1.0" encoding="UTF-8" standalone="no"?>
<!-- Created with Inkscape (http://www.inkscape.org/) -->

<svg
   width="10.212916mm"
   height="11.227346mm"
   viewBox="0 0 10.212916 11.227346"
   version="1.1"
   id="svg864"
   sodipodi:docname="favicon.svg"
   inkscape:version="1.1.2 (0a00cf5339, 2022-02-04)"
   xmlns:inkscape="http://www.inkscape.org/namespaces/inkscape"
   xmlns:sodipodi="http://sodipodi.sourceforge.net/DTD/sodipodi-0.dtd"
   xmlns="http://www.w3.org/2000/svg"
   xmlns:svg="http://www.w3.org/2000/svg">
  <sodipodi:namedview
     id="namedview10"
     pagecolor="#ffffff"
     bordercolor="#666666"
     borderopacity="1.0"
     inkscape:pageshadow="2"
     inkscape:pageopacity="0.0"
     inkscape:pagecheckerboard="0"
     inkscape:document-units="mm"
     showgrid="false"
     inkscape:zoom="1"
     inkscape:cx="-332"
     inkscape:cy="-79.5"
     inkscape:window-width="1075"
     inkscape:window-height="600"
     inkscape:window-x="26"
     inkscape:window-y="23"
     inkscape:window-maximized="0"
     inkscape:current-layer="text4385" />
  <defs
     id="defs861" />
  <g
     id="layer1"
     transform="translate(-216.81863,-145.60147)">
    <g
       id="layer1-5"
       transform="translate(96.789402,-73.02524)">
      <g
         aria-label="Willer"
         transform="matrix(0.26458333,0,0,0.26458333,-31.890559,12.167732)"
         id="text4385"
         style="font-size:53.3333px;font-family:HondaC;-inkscape-font-specification:'HondaC, Normal';white-space:pre;shape-inside:url(#rect4387)">
        <path
           d="m 612.28503,799.16407 q 0,15.09333 -11.68,22.93333 l -6.24,-6.77333 -5.86666,6.66666 q -1.97334,-0.37333 -4.48,-1.86666 -5.70667,-3.41334 -7.62667,-7.52 -1.70667,-3.52 -1.70667,-10.61334 V 780.8174 h 8.85334 v 20.74667 q 0,3.78666 0.8,5.86666 1.06666,2.88 4,4.32 V 780.8174 h 9.22666 v 19.2 q 0,4.58667 0.58667,6.61333 0.8,2.82667 3.52,5.54667 1.17333,-3.09333 1.54667,-4.90667 0.42666,-2.08 0.42666,-5.28 0,-8.05333 -4.69333,-14.82666 l 8.85333,-5.6 q 4.48,7.36 4.48,17.6 z"
           style="font-size:53.3333px;stroke:#ffffff;stroke-opacity:1"
           id="path998" />
      </g>
    </g>
  </g>
</svg>
