<?xml version="1.0" encoding="UTF-8" standalone="no"?>
<!-- Created with Inkscape (http://www.inkscape.org/) -->

<svg
   width="31.862816mm"
   height="10.978455mm"
   viewBox="0 0 31.862816 10.978455"
   version="1.1"
   id="svg5"
   xmlns="http://www.w3.org/2000/svg"
   xmlns:svg="http://www.w3.org/2000/svg"><defs
   id="defs2">
  <rect
     x="280.53839"
     y="699.04895"
     width="342.10898"
     height="351.02817"
     id="rect4387" />
</defs>
<g
   id="layer1"
   transform="translate(-75.030298,-187.25187)">
  <g
     aria-label="Willer"
     transform="scale(0.26458333)"
     id="text4385"
     style="font-size:53.3333px;font-family:HondaC;-inkscape-font-specification:'HondaC, Normal';white-space:pre;shape-inside:url(#rect4387)">
    <g
       id="g4410">
      <path
         d="m 321.17906,726.07032 q 0,15.09333 -11.68,22.93333 l -6.24,-6.77333 -5.86666,6.66666 q -1.97334,-0.37333 -4.48,-1.86666 -5.70667,-3.41334 -7.62667,-7.52 -1.70667,-3.52 -1.70667,-10.61334 v -21.17333 h 8.85334 v 20.74667 q 0,3.78666 0.8,5.86666 1.06666,2.88 4,4.32 v -30.93333 h 9.22666 v 19.2 q 0,4.58667 0.58667,6.61333 0.8,2.82667 3.52,5.54667 1.17333,-3.09333 1.54667,-4.90667 0.42666,-2.08 0.42666,-5.28 0,-8.05333 -4.69333,-14.82666 l 8.85333,-5.6 q 4.48,7.36 4.48,17.6 z"
         style="font-size:53.3333px"
         id="path4391" />
      <path
         d="m 335.47238,713.05698 -5.28,5.28 -5.28,-5.28 5.28,-5.28 z m -1.33333,35.62667 h -8.64 v -28.42667 h 8.64 z"
         style="font-size:53.3333px"
         id="path4393" />
      <path
         d="m 348.80569,748.57698 h -8.74667 v -40.85333 h 8.74667 z"
         style="font-size:53.3333px"
         id="path4395" />
      <path
         d="m 362.9923,748.57698 h -8.74667 v -40.85333 h 8.74667 z"
         style="font-size:53.3333px"
         id="path4397" />
      <path
         d="m 387.57891,727.51032 -10.61334,11.46666 q 2.24,2.18667 5.92,3.46667 l -6.34666,6.77333 q -4.74667,-1.86666 -6.88,-4.48 -2.4,-2.93333 -2.4,-7.73333 v -11.14667 l 10.77333,-6.98666 z m -8.53334,3.36 -3.62666,-4.05334 v 7.68 z"
         style="font-size:53.3333px"
         id="path4399" />
      <path
         d="m 404.00548,718.65698 -1.06667,11.25334 q -2.66666,-3.41334 -5.06666,-3.41334 v 22.08 h -8.74667 v -28.42666 h 8.42667 v 2.18666 q 3.46666,-3.04 6.45333,-3.68 z"
         style="font-size:53.3333px"
         id="path4401" />
    </g>
  </g>
</g>
</svg>
